<?xml version="1.0" encoding="UTF-8"?>
<svg width="482pt" height="394pt" version="1.1" viewBox="0 0 482 394" xmlns="http://www.w3.org/2000/svg" xmlns:xlink="http://www.w3.org/1999/xlink">
 <defs>
  <linearGradient id="a">
   <stop stop-color="#ff0" offset="0"/>
   <stop stop-color="#f00" offset="1"/>
  </linearGradient>
  <linearGradient id="d" x1="301.87" x2="133.96" y1="394.39" y2="27.104" gradientUnits="userSpaceOnUse" xlink:href="#a"/>
  <linearGradient id="c" x1="237.35" x2="13.016" y1="397.87" y2="277.03" gradientUnits="userSpaceOnUse" xlink:href="#a"/>
  <linearGradient id="b" x1="326.58" x2="366.2" y1="392.77" y2="141.94" gradientUnits="userSpaceOnUse" xlink:href="#a"/>
 </defs>
 <path transform="scale(.8)" d="m570.73 108.1c-3.07 0.21-6.41-0.33-8.98 1.75-9.27 4.8-16.97 12.39-21.98 21.54-16.9 27.28-42.12 48.51-58.22 76.44-2.95 5.35-6.06 10.77-7.66 16.71-0.76 2.68 0.16 6.57 3.41 6.89 3.89-0.27 6.78-3.43 9.67-5.73 10.85-9.85 20.25-21.16 30.13-31.96 21.89-24.69 43.19-49.98 62.45-76.8 2.2-2.77-0.24-6.36-2.84-7.79-1.79-1.06-3.96-1.09-5.98-1.05zm-39.24 6.04c-0.4-0.02-0.81-0.01-1.2 0.01-11.88 0.6-24.03 3.94-33.52 11.33-4.2 3.2-6.95 7.82-8.75 12.71-11.08 27.5-23.85 54.54-40.96 78.86-1.69 1.47-0.64 4.46 1.71 4.01 9.44 0.58 17.59-5.65 23.33-12.54 4.23-4.88 7.31-10.61 9.91-16.48 4.89-7.44 11.52-13.51 17.55-19.98 13.46-13.9 27.99-27.62 36.03-45.57 0.89-2.63 2.92-5.24 2.34-8.12-0.83-3.02-3.63-4.12-6.44-4.23zm-48.91 13.31c-0.23-0.02-0.46-0.02-0.69 0.01-5.66 0.72-11.09 2.8-16.34 4.98-6.64 2.79-12.54 7.94-14.91 14.9-3.97 12.2-11.57 22.8-18.16 33.77-6.45 10.35-12.97 20.97-15.82 32.98-0.47 2.06-1.85 4.94 0.42 6.45 3.52 2.82 8.4 2.76 12.46 1.28 3.41-1.09 7.37-1.74 9.53-4.92 12.7-14.35 20.91-31.9 28.98-49.09 4.11-8.8 7.71-17.86 12.27-26.44 2.38-3.18 4.96-6.72 5.3-10.8 0.04-1.73-1.42-2.97-3.04-3.12zm93.17 9.57c-0.13-0.01-0.26 0-0.39 0.02-3.63 1.7-5.76 5.58-8.55 8.35-26.05 30.81-53.62 60.26-80.75 90.12-49.28 36.53-94.91 78.58-132.08 127.55-1.75 1.71-2.2 5.14 0.61 6.05 3.95 1.04 7.42-2.41 10.09-4.87 29.93-28.25 60.16-56.26 90.66-83.92 9.46-8.82 19.63-16.91 28.72-26.12 30.32-34.47 61.69-68.04 90.52-103.78 2.8-3.21 5.97-7.92 3.56-12.2-0.55-0.75-1.46-1.2-2.39-1.2zm-138.72 13.06c-7.13 1.87-14.13 4.36-20.91 7.29-10.24 4.57-20.39 11.66-24.53 22.53-2.24 5.82-1.09 12.17-2.65 18.13-2.66 13.92-9.49 27.14-9 41.57 0.33 2.92-0.33 6.18 1.16 8.83 1.88 1.96 4.1-0.51 5.75-1.52 10.95-7.79 16.73-20.43 22.26-32.23 4.87-10.95 9.73-22.04 17.68-31.14 2.35-3.23 3.5-7.15 5.65-10.51 2.59-5.04 6.03-9.79 7.46-15.33 0.59-2.6 0.99-7.6-2.87-7.62zm-58.84 32.15c-4.77 0.51-9.02 3.1-13.25 5.18-11.55 6.36-21.84 15.73-27.73 27.63-0.22 3.55 0.83 7.14 1.03 10.71 1.27 13.09 1.26 26.23 0.87 39.37-1.32 25.39-6.26 50.5-12.91 75.03-0.75 2.39 2.98 3.62 3.85 1.31 15.3-30.77 29.78-62.05 40.96-94.57 4.53-13.46 8.72-27.06 11.69-40.95 0.5-5.34 0.42-10.66 0.77-15.97 0.26-3.02-0.68-7.11-4.22-7.66-0.35-0.06-0.7-0.08-1.06-0.08zm-57.23 4.82c-14.04-0.26-24.42 12.93-25.62 26.07-0.81 8.19-1.79 18.5 4.76 24.65 4.67 1.3 5.49-5.72 8.84-7.61 9.94-11.82 23.41-21.73 29-36.51-2.44-3.82-8.49-5.2-13.07-6.3-1.29-0.2-2.6-0.31-3.91-0.3zm-28.02 8.14c-0.51-0.01-1.02 0.01-1.49 0.04-12.37-0.06-17.97 18.23-8.96 25.83 2.8 2.77 6.66 0.01 6.35-3.43 1.84-6.98 7.82-12.97 7.73-20.34-0.5-1.66-2.08-2.05-3.63-2.1zm35.12 28.48c-17.36 4.03-26.49 22.98-26.14 39.63 0.05 11.57 1.03 23.81 5.96 34.25 5.18-0.76 5.33-8.05 5.83-12.44 0.67-8.36 0.47-17.16 1.43-25.28 3.28 12.02-0.18 24.56 0.24 36.86 0.18 10.39-1.54 22.22 4.71 31.16 4.55-0.85 4.72-7.63 6.72-11.33 5.8-16.5 7.44-34.02 7.07-51.42-0.49-12.77 1.3-25.89-1.45-38.45-0.66-1.81-2.38-3.17-4.37-2.98zm111.35 4.07c-4.31 0.03-8.64 0.2-12.93 0.04-4.02 0.13-8.1-0.26-12.08 0.19-10.57 3.9-16.11 14.38-22.74 22.71-4.51 6.21-11.67 9.59-16.77 15.23-13.84 13.32-19.62 32.21-26.15 49.72-3.74 10.65-8.05 21.11-13.48 31.05-2.66 7.85-5.49 15.76-6.69 23.99-0.57 5.12-0.46 11.18 3.98 14.66 1.6 1.92 4.38 0.92 4.98-1.35 9-17.32 20.26-33.32 33.03-48.22 15.1-17.74 31.14-34.62 47.07-51.63 8.43-8.23 19.05-13.83 27.45-22.12 7.96-7.33 14.57-17.1 15.41-28.13-0.52-3.87-5.32-4.08-8.21-5.26-4.25-0.77-8.55-0.9-12.87-0.88z" fill="url(#b)"/>
 <path transform="scale(.8)" d="m57.713 242.98c-0.228-0.01-0.46-0.01-0.695 0-3.073 0.23-6.046 1.33-8.87 2.51-3.465 1.61-6.13 5.98-4.195 9.67 1.645 3.26 5.446 4.18 8.699 4.93 2.198 1.01 4.677 2.46 7.121 1.24 4.477-1.87 5.534-7.59 4.512-11.87-0.677-3.22-3.158-6.29-6.572-6.48zm-23.953 13.25c-3.627 0.32-6.722 2.72-9.317 5.11-5.462 5.41-8.642 13.63-6.761 21.25 1.244 2.63 4.546 2.95 6.884 4.16 3.343 1.29 6.742 2.4 10.168 3.42-2.44-0.47-4.938-0.66-7.422-0.64-5.423 0.03-11.293 0.53-15.673 4.09-5.5282 4.31-7.2235 11.82-6.7191 18.5 0.2475 7.04 1.6184 14.05 3.8086 20.71 1.1598 2.05 3.9575 0.99 5.8885 1.35 20.744 0.59 41.619 2.93 61.735 8.72 4.213 1.06 8.209 2.96 12.503 3.82 6.174-0.59 11.765-5.44 13.355-11.43 0.49-3.32 0.08-6.95-2.233-9.55-1.121-1.73-3.001-2.75-4.262-4.3-2.971-8.07-9.839-14.37-17.895-17.21-10.299-3.98-21.499-4.95-31.75-9.05-2.222-1.15-4.275-2.67-6.584-3.65 7.846 2.15 15.806 3.91 23.643 6 3.436 0.74 6.792 2.03 10.269 2.6 2.472-0.15 2.423-3.06 2.313-4.88-0.194-11.9-7.536-22.6-16.842-29.52-6.882-5.15-15.14-8.67-23.728-9.47-0.46-0.02-0.921-0.04-1.381-0.03zm0.799 82.12c-4.916 0.22-9.94 0.04-14.748 1.21-4.741 1.34-9.555 4.47-10.711 9.57-1.0967 4.53 0.902 9.24 3.638 12.78 1.593 1.15 3.721 1.49 4.95 3.18 3.881 4.02 5.831 9.79 10.617 12.92 4.111 2.43 8.873 0.4 13.074-0.61 11.874-3.14 23.788-7.65 36.156-7.71 4.15-0.01 8.38 0.23 12.399 1.62 4.453 1.28 9.421-3.29 8.08-7.83-0.654-2.3-2.845-3.54-4.778-4.61-13.632-10.7-30.104-17.87-47.359-19.89-3.754-0.45-7.536-0.71-11.318-0.63zm73.211 0.34c-3.14 0.48-5.87 2.61-7.991 4.89-2.879 3.13-3.482 7.87-1.742 11.71 2.823 6.58 8.153 11.61 12.843 16.86 2.35 2.39 4.33 5.14 6.61 7.56 1.72 0.98 3.94 0.16 5.86 0.38 14.41-0.14 28.8-0.78 43.17-0.22 7.41 0.47 14.86 1.4 22.12 3.1 2.19 0.21 3-2.95 1.13-3.96-8.99-5.64-19.72-7.24-29.47-10.91-4.06-1.3-7.7-3.51-11.19-5.91-6.31-3.16-11.88-7.52-17.35-11.93-6.49-5.19-13.6-10.68-22.18-11.45-0.6-0.06-1.2-0.14-1.81-0.12zm-20.651 35.24c-11.889 0.17-23.915-0.13-35.637 2.17-6.547 1.41-13.177 4.2-17.574 9.41-1.177 1.92 0.929 3.74 1.832 5.35 5.201 6.85 13.015 11.89 21.543 13.29 5.402 0.69 11.021-0.51 15.514-3.63 10.516-5.99 22.953-6.94 33.583-12.83 2.38-1.04 1.27-3.93 0.68-5.81-2-5.22-7.939-7.32-13.072-7.83-2.285-0.17-4.579-0.11-6.869-0.12zm61.931 6.04c-0.18 0.04-0.35 0.08-0.53 0.12-4.44 2.61-9.62 3.68-14.08 6.22-2.05 1.95-0.54 5.09 0.91 6.94 2.45 3.36 6.04 5.91 7.74 9.79 1.48 1.88 3.97 0.17 5.87 0.03 17.59-3.9 35.51-6.07 53.48-6.42-17.58 1.64-34.83 6.45-51.54 11.93-6.28 3.15-2.17 11.85 2.9 14.04 4.81 3.06 10.61 1.63 15.15-1.02 10.28-0.25 20.03-4.1 28.96-9.02 6.47-1.17 15.1-5.04 15.32-12.56-0.49-2.28-2.44-3.11-4.54-3.42 4.22 0.02 8.44 0.13 12.66 0.36 1.66-0.44 2.23 1.54 3.73 1.82 3.78 1.53 8.31-3.35 6.18-6.9-1.67-1.91-4.59-1.42-6.83-1.99-21.04-2.85-41.92-7.32-63.11-9.32-4.08-0.27-8.2-0.7-12.27-0.6zm-31.24 6.91c-3.85 0.54-7.36 2.42-11.02 3.64-13.026 5.07-25.875 10.6-38.604 16.37-2.358 0.82-4.588 3.66-3.067 6.11 2.19 3.24 6.499 3.57 9.719 5.24 4.342 2.34 8.859 4.55 13.81 5.2 8.065 1.27 16.202-0.84 23.782-3.51 9.23-3.26 18.02-7.58 27.41-10.38 1.63-0.91 2.16-3.21 1.79-4.96-1.31-3.69-5.62-4.68-8.79-6.21-2.18-1.12-4.77-1.78-6.12-4.03-2.38-3.01-4.45-7.49-8.91-7.47zm20.05 25.71l-3.31 0.72c-4.93 1.23-10.53 2.03-14.2 5.9-1.82 2-3.16 5.78-0.62 7.78 5.23 4.13 12.57 3.54 18.58 1.71 3.75-1.33 8.04-3.08 9.89-6.87 1.27-2.76-0.79-5.64-3.18-6.95-2.23-1.12-4.69-1.99-7.16-2.29z" fill="url(#c)"/>
 <path transform="scale(.8)" d="m174.37 11.199c-8.09 0.133-14.03 9.718-9.4 16.766 16.18 36.16 30.17 74.705 57.37 104.36 2.34 3.87 6.34-0.04 4.69-3.42-1.77-20.28-13.85-37.635-20.84-56.191-4.79-11.708-8.78-23.779-14.28-35.166-3.26-5.316-7.95-9.853-8.72-16.395-1.23-4.266-3.37-10.23-8.82-9.949zm-27.84 18.809c-10.22 0.384-12.67 14.681-7.9 21.939 23.36 39.622 42.17 81.703 64.22 122.03 8.55 13.62 24.79 22.69 40.87 22.46 6.24-1.59 1.32-9.09 0.25-12.87-15.76-40.93-51.81-70.79-64.98-112.59-3.91-9.153-9.49-17.484-13.63-26.558-4.06-6.808-10.09-14.563-18.83-14.414zm62.14 15.851c-4.4 2.149-0.12 8.227-0.07 11.799 11.28 44.532 33 85.682 44.12 130.24 3.8 34.76 20.86 66.77 27.48 101.06 0.2 10.18 7.06 18.63 9.09 28.46 6.49 19.85 10.09 40.6 16.37 60.43 3.26 3.52 7.32-1.07 6.65-4.76-0.29-20.9-7.62-40.92-11.77-61.24-5.75-25.2-13.01-50.16-19.25-75.12-2.99-15.5-5.12-31.43-12.58-45.58-18.93-47.23-35.83-95.431-56.03-142.18-0.98-1.337-2.12-3.217-4.01-3.111zm-82.76 7.936c-0.44 9e-3 -0.88 0.082-1.31 0.232-9.48 9.052-21.2 20.269-19.7 34.586 5.63 12.497 16.49 21.857 23.76 33.417 18.59 26.07 33.85 54.37 52.39 80.43 6.57 6.95 19.68 3.16 21.18-6.5 3.02-8.98-1.47-17.71-6.56-24.9-12.47-21.02-20.38-44.51-32.33-65.83-12.11-13.946-15.76-33.34-28.67-46.716-2.48-1.701-5.68-4.78-8.76-4.719zm-23.55 52.295c-0.23-0.01-0.46 0-0.69 0.02-7.633 0.78-9.396 10.33-12.727 15.82-5.819 11.17-6.271 24.4-4.064 36.55 5.078 12.49 18.771 18 26.901 28.08 21.87 21.79 36.96 50.14 61.47 69.42 4.33 3.26 14.53 5.85 15.78-1.77 2.53-17.66-2.1-35.82-12.35-50.37-12.91-19.23-26.02-38.25-38.09-57.98-10.07-13.13-20.12-26.5-31.8-38.22-1.26-1-2.83-1.53-4.43-1.55zm-21.206 68.88c-0.234-0.01-0.471 0.02-0.703 0.08-4.593 4.12-4.828 11.5-6.849 17.12-2.432 13.65-3.776 27.72-3.264 41.57 2.092 4.43 8.619 4.33 12.187 7.39 38.895 19.85 73.195 47.57 105.16 77.15 3.32 3.31 13 4.25 12.93-2.13-3.4-10.36-9.13-19.63-12.84-29.99-9.12-17.79-23.94-31.8-36.18-47.4-20.5-23.86-41.94-48.19-69.744-63.67-0.226-0.06-0.458-0.1-0.692-0.12zm127.93 18.23c-6.92 2.09-7.83 11.88-5.62 17.77 12.75 31.28 30.92 59.97 43.4 91.38 11.04 26.98 33.67 47.33 44.59 74.31 0.94 3.23 2.52 11.33 7.4 7.34 4.62-5-1.22-11.89-1.74-17.49-12.67-48.43-22.85-97.99-43.43-143.96-1.55-6.59-5.82-11.98-12.24-14.33-10.69-5.02-21.15-11.44-32.36-15.02zm-9.7 25.73c-0.49 0.03-0.98 0.17-1.47 0.45-5.73 11.79-4.65 26.8 2.86 37.6 6.25 9.1 14.37 18.43 24.96 22.12 5.18-2.55 1.08-9.73-0.19-13.75-6.87-12.42-10.76-26.21-17.19-38.8-2.15-2.52-5.54-7.83-8.97-7.62zm-125.78 28.38c-0.315 0-0.629 0-0.944 0.01-4.82 3.29-5.55 10.09-3.269 15.13 2.804 7.15 7.115 13.61 10.635 20.39 5.851 5.26 12.671 9.32 18.908 14.09 35.814 25.82 71.624 53.07 113.34 68.69 11.8 4.33 23.97 7.88 36.4 9.76 2.5-0.03 2.6-3.74 0.29-4.28-28.38-16.13-52.28-38.56-76.6-60.08-22.13-19.6-44.78-39.23-71.34-52.64-8.801-4.46-17.973-8.33-27.424-11.07zm122.86 16.14c-0.39 0-0.8 0.12-1.21 0.42-4.92 7.92-3.89 18.11-0.03 26.26 5.25 11.52 11.67 22.52 14.82 34.81 2.74 9.15 5.66 19.06 13.45 25.27 5.23 3.74 11.22 6.05 16.54 9.69 16.38 10.05 31.53 22.38 49.38 29.82 2.48 0.78 3.62-2.5 2.1-4.11-17.12-27.65-33.28-56.03-53.36-81.69-11.28-14.31-24.05-27.51-38.42-38.74-0.98-0.68-2.08-1.74-3.27-1.73zm-101.52 39.2c-5.515 1.39-1.521 7.93 1.246 10.11 18.468 19.71 41.448 34.58 65.938 45.72 31.44 16.4 64.79 33.55 101.18 33.03 5.42 0.11 5.78-8.38 0.52-9.01-7.77-0.28-16.04 0.16-23.35-2.64-24.84-8.13-48.33-19.49-71.69-31.28-24.67-13.32-45.91-32.65-71.05-45.32-0.892-0.34-1.827-0.67-2.794-0.61z" fill="url(#d)"/>
 <path d="m150.65 0h7.95c4.58 2.4 6.34 7.57 8.45 11.98 19.2 44.37 38.3 88.84 52.84 135.04 2.72 10.08 14.54-0.18 20.76-0.44 13.21-6.73 26.22 2.27 39.62 1.38 32.89-18.24 65.72-37.23 100.84-50.9 28.87-7.58 58.93-21.15 89.26-14.49 4.59 1.24 10.59 2.21 11.63 7.8v4.38c-57.43 78.54-126.89 150.71-199.72 213.16 33.66 13.63 70.02-5.21 95.85-26.87 5.71-3.85 27.02-10.44 22.52 2.57-15.61 21.66-45.06 25.73-69.17 32.92-7.17 2.79-19.1-0.78-22.68 7.84 19.81 1.64 39.43-1.44 58.7-5.57 24.5-0.92 42.61-20.3 64.16-28.6 6.04 7.69-10.48 16.08-13.33 23.12-28.97 20.05-66.47 17.58-100.01 20.43-8.97-3.95-12.11 5.04-16.75 10.15-6.56 2.18-13.87 1-20.65 0.77-5.66 0.14-3.32-10.03-9.63-8.58-15.57 10.96-25 29.74-24.09 48.88-10.15-0.77-7.58-15.17-4.97-21.59 2.2-4.32 8.91-15.18-1.58-13.15-10.55 6.3-15.29 18.6-18.48 29.9-0.66 2.55-3.9 2.03-5.72 1.21-1.39-11.91 7.57-21.92 11.41-32.58-0.24-3.04-4.04-1.65-6.21-1.84-6.86 10.82-9.06 23.83-14.44 35.35-1.4 2.66-5.69 2.13-6.98-0.37 2.06-8.67 9.11-15.84 7.9-25.32-16.26 9.61-27.96 30.69-46.64 37.42h-5.59c-3.64-4.13 4.47-4.44 6.89-6.17 15.52-12.36 29.43-26.91 41.69-42.47 2.48-2.66 3.83-12.56-1.78-7.67-26.02 24.75-57.01 54.01-95.6 50.37-3.26-15.58 11.85-27.83 18.03-41.11-27.22 5.59-55.55-1.76-79.75-14.38-16.19-6.35-27.86-19.92-33.78-35.91-18.54-11.64-5.4-35.27-11.6-51.94v-4.32c4.06-24.38 22.74-45.53 47.11-52.16 3.71-7.16-4.89-16.25 2.75-22.59-0.24-17.95 8.98-34.11 12.05-51.66 7.52-12.99 3.62-31.03 16.56-41.03 0.22-15.16 11.22-33.63 25.76-38.31 0.67-3.07-0.39-6.4 0.8-9.33 14.63-9.64 27.54-22.6 45.62-25.32m-12.3 10.26c-4.99 0.72-8.38 5.95-5.84 10.82 13.69 29.47 24.59 62.15 47.8 85.58 1.34-19.2-14.75-37.36-19.34-56.51-5.31-8.2-5.19-19.68-13.42-25.84-2.93-4.52-1.04-15.25-9.2-14.05m-22.94 14.96c-5.28 1.57-6.16 9.08-5.07 13.75 19.59 29.67 33 62.79 49.66 94.05 4.86 13.75 22.92 24.71 36.79 22.69-9.92-38.28-45.96-63.46-55.88-102.59-8.83-9.33-9.26-29.21-25.5-27.9m50.57 11.84c7.71 38.42 27.89 74.78 37.8 113.2 1.48 30.07 19.63 56.38 22.26 86.61 10.34 20.51 12.82 43.25 19.32 64.95 6.41 1.99 2.77-6.81 3.28-10.21-5.08-28.74-13.78-56.72-19.84-85.23-8.26-16.51-4.82-36.43-14.95-52.25-13.56-36.57-27.7-72.6-42.02-108.95-1.53-2.86-2.51-6.95-5.85-8.12m-65.31 7.15c-8.14 7.77-19.74 17.41-14.61 30.15 23.75 26.27 39.76 58.04 59.62 87.34 14.24 8.53 20.75-11.97 12.03-20.45-10.79-17.5-18.39-36.83-26.56-55.42-13.92-11.16-13.67-36.06-30.48-41.62m-21.91 42c-9.59 13.5-18.76 38.8-1.61 50.7 25.65 17.29 37.06 47.29 60.92 66.1 3.2 1.91 9.36 6.41 11.85 1.21 6.03-30.32-19.14-50.97-32.41-74.73-7.98-15.37-20.33-27.62-30.85-41.18-1.73-2.6-4.98-3.03-7.9-2.1m373.02 2.11c-7.42 3.55-14.09 9.1-18.01 16.45-15.81 26.43-42.29 45.81-53.41 75.05-0.71 10.08 10.26-2.65 13.41-5.08 24.33-26.39 48.22-53.53 69.26-82.75-0.84-5.43-7.31-4.14-11.25-3.67m-35 5.15c-10.01 2.56-21.52 6.44-24.89 17.43-9.11 22.54-19.47 44.67-33.57 64.32 11.22 1.88 22.26-11.99 26.06-22.78 14.55-18.99 36.25-32.87 44.66-56.52-0.27-5.64-8.95-2.14-12.26-2.45m-32.35 9.99c-9.14 2.52-20.34 5.62-22.9 16.11-7.1 19.55-23.72 34.42-27.5 55.26 4.2 4.04 10.38 0.99 14.85-0.77 15.87-17.37 23.65-40.38 33.77-61.37 1.83-1.77 7.77-10.8 1.78-9.23m75 7.92c-22.14 26.78-46.34 52.44-69.8 78.27-40.03 29.31-76.17 63.26-106.29 102.77-0.5 3.65 6.23 0.2 6.55-1.34 31.3-29.14 62.36-58.51 94.56-86.64 25.61-29.34 52.44-57.68 76.71-88.15 0.62-1.76 1.46-6.97-1.73-4.91m-109.36 9.96c-14.64 4.53-32.71 10.06-36.56 26.67 1.04 17.16-11.37 32.96-7.49 50.03 18.95-10.93 20.05-37.81 35.14-52.93 2.07-7.54 12.46-18.58 8.91-23.77m-285.65 19.24c-6.62 13.83-6.8 31.18-7.29 46.75 33.62 14.94 64.78 39.22 91.8 64.7 2.27 3.66 10.53 6.29 10.99 0.19-7.7-10.52-8.96-24.53-17.78-34.37-23.55-27.73-45.89-59.41-77.72-77.27m236.93 6.75c-12.46 4.27-24.5 13.54-30.27 25.29 5.09 34.06 0.08 69.18-9.39 102.19 17.46-35.57 34.82-72.75 43.43-111.87-1.56-3.8 3.57-17.4-3.77-15.61m-49.57 4.16c-15.6 2.74-19.1 32.98-10.46 38.35 7.32-13 22.41-20.48 27.62-34.65-4.35-4.52-11.39-4.8-17.16-3.7m-85.42 3.66c-9.96 12.51 5.27 23.83 7.47 36.04 9.81 17.13 18.81 34.65 25.88 53.1 9.9 22.3 30.02 38.89 36.61 62.55 6.4 0.74 1.47-7.62 0.57-10.73-9.99-42.65-19.53-86.05-38.58-125.43-10.02-5.8-21.2-11.59-31.95-15.53m65.46 2.25c-9.69 0.68-11.45 19.69-2.1 19.5-2.42-5.77 14.23-21.95 2.1-19.5m-72.38 18.78c-9.85 18.3 5.36 38.57 21.34 46.51 3.36-6.66-5.18-14.03-6.61-20.87-4.64-8.24-5.72-22.29-14.73-25.64m101.95 4.18c-23 7.64-21.08 39.58-14.4 56.75 6.62-8.35-0.23-24.76 5.05-33.25 8.01 15.59-5.28 42.53 4.9 57.26 10.18-21 9.48-45.21 9.36-67.98-1.18-3.32 1.53-14.28-4.91-12.78m71.02 3.25c-11.86 3.63-14.59 17.84-24.61 24.2-23.85 16.25-24.36 47.43-38.66 70.36-1.6 9.07-10.19 23.74-1.13 30.06 15.63-32.23 42.76-57.23 66.55-83.66 13.16-10.26 31.14-19.52 32.51-38.21-9.81-5.28-23.28-1.85-34.66-2.75m-289.64 12.96c-8.38 1.23-9.29 9.29-0.18 9.9 9.75 7.17 10.62-14.99 0.18-9.9m15.91 2.67c-8 6.66 3.7 18.82 6.51 26.52 41.55 29.15 83.69 65.39 134.91 73.31-50.67-27.87-85.01-82.75-141.42-99.83m-31.9 7.14c-7.94 2.34-13.14 11.85-11.16 19.69 13.75 6.42 29.07 8.19 43.45 12.77 1.47-17.14-16.24-31.65-32.29-32.46m130.53 5.72c-7.06 11.88 3.22 24.14 7.62 34.95 5.62 10.8 5.27 25.46 16 33.05 18.31 8.62 33.38 23.28 52.03 30.75-21.37-34.43-42.81-74.6-75.65-98.75m-140.65 21.3c-15.87 2.59-11.4 21.49-8.35 32.35 20.66 0.35 42.71 2.77 62.67 10.24 9.1-1.55 13.68-12.02 4.46-17.52-5.75-17.54-26.41-15.05-40.35-21.41-5.04-4.36-12.15-4.23-18.43-3.66m58.83 8.85c-3.91 7.32 11.15 11.91 13.46 18.79 10.84 6.28 19.9 16.08 32.2 19.79 27.5 14.88 57.74 32.17 90.46 31.08 3.95-1.75-0.41-7.93-4.19-4.32-20.95-0.73-39.51-12.68-58.54-20.46-26.94-10.4-48.39-32.78-73.39-44.88m-52.76 30.18c-11.01-0.57-18.66 6.5-11.4 16.21 7.97 1.89 7.75 15.33 17.13 12.96 13.96-3.34 27.7-9.76 42.4-6.53 4.88 3.05 9.34-4.57 3.43-6.25-14.12-11.62-33.25-18.08-51.56-16.39m63.02-0.01c-16.92 8.08 3.15 21.44 9 30.11 18.96 0.37 38.49-2.25 57.3 2.6-9.93-7.03-24.05-6.4-33.81-14.41-11.35-4.73-19.78-18.33-32.49-18.3m-25.39 28.28c-10.7 0.44-24.45 0.15-32.17 8.57 4.78 9.14 19.08 17.12 29.06 9.97 8.49-5.16 19.31-5.66 27.55-10.66-0.54-10.78-17.29-7.47-24.44-7.88m59.11 4.69c-3.51 2.2-7.69 3.03-11.27 4.91-0.13 4.57 6.19 6.91 7.48 11.4 20.63-4.9 41.96-6.87 63.2-5.54 3.59 4.97 7.47-3.07 3.33-2.35-20.99-2.6-41.71-7.79-62.74-8.42m-27.76 6.29c-12.76 4.54-25.11 10.15-37.51 15.54-3.8 3.64 4.12 4.78 6.56 6 16.91 11.25 34.13-2.42 50.59-6.96 2.7-4.5-4.97-5.08-7.4-7.14-5.46-0.98-5.41-10.74-12.24-7.44m74.73 6.77c-16.33-0.18-31.47 5.67-47.38 9.83-1.4 9.21 9.84 13.79 15.74 7.37 8.29 0.52 16.52-2.04 22.84-7.23 5.12 2.05 18.19-9.35 8.8-9.97m-55.96 13.12c-5 1.24-14.54 2.12-14.42 8.25 7.67 8.31 33.57-4.23 14.42-8.25z"/>
</svg>
